<svg width="139" height="122" viewBox="0 0 139 122" fill="none" xmlns="http://www.w3.org/2000/svg">
<path d="M32.8052 54.9999C32.8052 64.9411 40.864 72.9999 50.8052 72.9999L77.8052 72.9999C80.5666 72.9999 82.8052 70.7614 82.8052 67.9999L82.8052 33.9999C82.8052 28.4771 78.328 23.9999 72.8052 23.9999L37.8052 23.9999C35.0437 23.9999 32.8052 26.2385 32.8052 28.9999L32.8052 54.9999Z" fill="#FFF1DA"/>
<path d="M81.2338 68.953C79.8826 69.1624 78.5754 69.6459 77.3936 70.373C74.3129 72.215 72.5775 75.0572 73.5177 76.7207C74.4579 78.3842 77.7175 78.2387 80.7982 76.3967C81.9972 75.7 83.0525 74.7714 83.8989 73.6683C84.291 73.134 84.3419 72.4332 84.029 71.8813L82.8076 69.7203C82.4967 69.1668 81.8791 68.8661 81.2338 68.953Z" fill="#D5D6DB"/>
<path d="M73.3895 41.9567C72.4097 42.1087 71.4618 42.4595 70.6048 42.9869C68.3714 44.3222 67.1123 46.383 67.7935 47.5883C68.4747 48.7935 70.8392 48.6878 73.0723 47.3526C73.9417 46.8471 74.7067 46.1734 75.3207 45.3734C75.6046 44.9861 75.6414 44.4784 75.4146 44.0783L74.5302 42.5135C74.305 42.1123 73.8575 41.8939 73.3895 41.9567Z" fill="#D5D6DB"/>
<path d="M60.5603 42.2105C60.3399 42.1674 60.1077 42.2097 59.909 42.3286L54.6678 45.4574C54.2293 45.7182 54.0685 46.275 54.3089 46.7014C54.3639 46.799 54.4376 46.8846 54.5259 46.9531L68.0319 57.4868L85.5088 47.0539L60.5603 42.2105Z" fill="#029BC5"/>
<path d="M117.104 43.5119L68.8476 73.0974L40.071 83.269L25.2959 85.2412L23.5662 82.0872L104.035 33.8522C106.433 32.4077 109.13 31.6229 111.853 31.5776C113.046 31.5647 114.228 31.7061 115.373 31.998C116.388 32.2481 117.356 32.6483 118.247 33.1866C119.243 33.7953 121.108 34.0111 121.744 35.1119C121.746 35.1104 123.32 40.0518 117.104 43.5119Z" fill="#E1E6E9"/>
<path d="M68.8632 67.3584L48.7866 101.62C48.5376 102.104 48.7127 102.683 49.1774 102.913C49.4625 103.054 49.8055 103.035 50.0887 102.863L55.3729 99.6581C56.3892 99.0413 57.2806 98.2253 57.992 97.2606L97.5049 49.1404L68.8632 67.3584Z" fill="#029BC5"/>
<path d="M16.0484 66.527C15.6955 66.3762 15.2824 66.4072 14.9394 66.61L10.6329 69.1568C10.0461 69.5035 9.83179 70.2424 10.1541 70.8074C10.2155 70.9148 10.2938 71.0113 10.3866 71.093L23.0475 82.2687L35.7389 74.9308L16.0484 66.527Z" fill="#029BC5"/>
<path d="M26.7832 83.5255L20.3627 93.0503C20.2685 93.187 20.2974 93.3707 20.4273 93.4603C20.5209 93.5249 20.6461 93.5249 20.7457 93.4603L24.8321 90.9766C24.8638 90.9573 24.8923 90.9322 24.9156 90.9028L34.3581 78.9266L26.7832 83.5255Z" fill="#029BC5"/>
<path d="M114.867 31.955C113.701 31.6662 112.496 31.5276 111.281 31.5421C110.15 33.1878 109.454 35.0826 109.262 37.0377C109.256 37.4331 109.57 37.7432 109.964 37.7305C110.086 37.7264 110.207 37.6909 110.314 37.6273L117.796 33.1335C116.887 32.5991 115.901 32.2024 114.867 31.955Z" fill="#029BC5"/>
<path d="M98.3322 40.3914L103.115 37.6284L107.926 45.8715L103.143 48.6344L98.3322 40.3914Z" fill="#D5D6DB"/>
<path d="M95.1689 43.7964C94.5913 44.1307 94.3808 44.8485 94.6993 45.3996L95.2153 46.2924C95.553 46.8317 96.2862 46.9829 96.8531 46.63C97.3925 46.2939 97.5909 45.6176 97.3065 45.0822L96.7905 44.1894C96.4723 43.6388 95.7465 43.4628 95.1689 43.7964Z" fill="#3A556A"/>
<path d="M90.7045 46.5689C90.1269 46.9032 89.9164 47.621 90.2349 48.1721L90.7509 49.0649C91.0886 49.6042 91.8219 49.7554 92.3887 49.4025C92.9282 49.0664 93.1265 48.39 92.8421 47.8546L92.3261 46.9618C92.0077 46.4114 91.2819 46.2354 90.7045 46.5689Z" fill="#3A556A"/>
<path d="M86.2387 49.3422C85.6617 49.677 85.4521 50.394 85.7703 50.9446L86.2863 51.8373C86.624 52.3766 87.3573 52.5278 87.9241 52.1749C88.4636 51.8388 88.6619 51.1625 88.3775 50.6271L87.8615 49.7344C87.5431 49.1833 86.8166 49.0077 86.2387 49.3422Z" fill="#3A556A"/>
<path d="M81.7744 52.1145C81.1974 52.4494 80.9878 53.1664 81.306 53.717L81.822 54.6098C82.1597 55.1491 82.8929 55.3003 83.4598 54.9474C83.9992 54.6113 84.1975 53.935 83.9132 53.3995L83.3972 52.5068C83.0785 51.9558 82.352 51.7802 81.7744 52.1145Z" fill="#3A556A"/>
<path d="M77.3103 54.887C76.7331 55.2218 76.5234 55.9388 76.8417 56.4893L77.3579 57.3821C77.676 57.9324 78.402 58.1078 78.9794 57.7739C79.5567 57.4399 79.7668 56.723 79.4486 56.1727L78.9324 55.2799C78.615 54.7291 77.8892 54.553 77.3115 54.8863C77.311 54.8866 77.3107 54.8867 77.3103 54.887Z" fill="#3A556A"/>
<path d="M72.8458 57.6594C72.2686 57.9943 72.0589 58.7112 72.3772 59.2618L72.8934 60.1546C73.2116 60.7049 73.9375 60.8803 74.5149 60.5463C75.0922 60.2123 75.3023 59.4955 74.9841 58.9451L74.468 58.0524C74.1505 57.5016 73.4247 57.3255 72.847 57.6587C72.8465 57.659 72.846 57.6593 72.8458 57.6594Z" fill="#3A556A"/>
<path d="M68.3812 60.432C67.804 60.7668 67.5943 61.4837 67.9126 62.0343L68.4288 62.9271C68.7477 63.477 69.474 63.6512 70.0507 63.3167C70.6264 62.9828 70.836 62.2674 70.5192 61.7178L70.0031 60.825C69.685 60.2743 68.959 60.0983 68.3812 60.432Z" fill="#3A556A"/>
<path d="M63.9166 63.2045C63.3394 63.5393 63.1297 64.2563 63.448 64.8069L63.9642 65.6996C64.2831 66.2496 65.0094 66.4238 65.5861 66.0893C66.1618 65.7553 66.3714 65.0399 66.0546 64.4903L65.5385 63.5975C65.2204 63.0468 64.4944 62.8708 63.9166 63.2045Z" fill="#3A556A"/>
<path d="M59.4522 65.9769C58.875 66.3117 58.6653 67.0287 58.9837 67.5792L59.4998 68.472C59.8187 69.0219 60.545 69.1962 61.1217 68.8616C61.6974 68.5277 61.9071 67.8123 61.5903 67.2627L61.0741 66.37C60.7558 65.8194 60.0298 65.6434 59.4522 65.9769Z" fill="#3A556A"/>
<path d="M54.9865 68.7501C54.4092 69.0841 54.1991 69.801 54.5173 70.3514L54.518 70.3525L55.0341 71.2453C55.353 71.7952 56.0793 71.9695 56.656 71.6349C57.2317 71.301 57.4414 70.5856 57.1246 70.036L56.6084 69.1432C56.2903 68.5925 55.5644 68.4165 54.9865 68.7501Z" fill="#3A556A"/>
<path d="M50.5233 71.5218C49.9459 71.8558 49.7358 72.5727 50.054 73.123L50.0547 73.1242L50.5709 74.0169C50.8898 74.5668 51.6161 74.7411 52.1928 74.4066C52.7685 74.0726 52.9782 73.3572 52.6614 72.8076L52.1452 71.9149C51.8269 71.3643 51.1009 71.1883 50.5233 71.5218Z" fill="#3A556A"/>
</svg>
